<svg id="Layer_1" data-name="Layer 1" xmlns="http://www.w3.org/2000/svg" xmlns:xlink="http://www.w3.org/1999/xlink" viewBox="0 0 282.75 98.12"><defs><style>.cls-1{fill:none;}.cls-2{isolation:isolate;}.cls-3{clip-path:url(#clip-path);}.cls-4{clip-path:url(#clip-path-2);}.cls-5{clip-path:url(#clip-path-3);}.cls-6{clip-path:url(#clip-path-4);}.cls-7{font-size:76px;font-family:SnellRoundhand, Snell Roundhand;}.cls-7,.cls-8{fill:#231f20;}.cls-8{font-size:31px;stroke:#231f20;stroke-miterlimit:10;stroke-width:0.75px;font-family:AcuminPro-Thin, Acumin Pro;font-weight:200;}.cls-10,.cls-11,.cls-9{font-size:25px;}.cls-10{letter-spacing:0.01em;}.cls-11,.cls-15{letter-spacing:0em;}.cls-12{letter-spacing:0.02em;}.cls-13{letter-spacing:0em;}.cls-14{letter-spacing:-0.01em;}.cls-16{letter-spacing:0em;}</style><clipPath id="clip-path" transform="translate(-13.44 -8.54)"><path class="cls-1" d="M31.65,21.19l1.54-1a45.53,45.53,0,0,0-7.26,6,37.35,37.35,0,0,0-5.45,7,32,32,0,0,0-3.4,7.87A29.83,29.83,0,0,0,16,49.56a31,31,0,0,0,4.37,15A41.48,41.48,0,0,0,31.66,76.86a56.17,56.17,0,0,0,16.51,8.26,66.57,66.57,0,0,0,20.07,3L66.82,89.4a66.72,66.72,0,0,1-20.14-3,56,56,0,0,1-16.56-8.29A41.51,41.51,0,0,1,18.81,65.77a31,31,0,0,1-4.38-15.08,29.34,29.34,0,0,1,1.06-8.54,32.19,32.19,0,0,1,3.4-7.9,38.06,38.06,0,0,1,5.48-7.06A45.26,45.26,0,0,1,31.65,21.19Z"/></clipPath><clipPath id="clip-path-2" transform="translate(-13.44 -8.54)"><path class="cls-1" d="M108.21,73.55l-1.28,1.22a47.75,47.75,0,0,1-7.93,6,56.13,56.13,0,0,1-9.54,4.61,62.86,62.86,0,0,1-10.83,2.94,68.81,68.81,0,0,1-11.81,1l1.42-1.27a66.5,66.5,0,0,0,11.77-1A61.52,61.52,0,0,0,90.8,84.16a54.57,54.57,0,0,0,9.5-4.59A47.08,47.08,0,0,0,108.21,73.55Z"/></clipPath><clipPath id="clip-path-3" transform="translate(-13.44 -8.54)"><path class="cls-1" d="M31.19,20.31l1.54-1A54.44,54.44,0,0,1,40,15.23a59.9,59.9,0,0,1,8.19-3.06,65.15,65.15,0,0,1,8.93-1.95,69.18,69.18,0,0,1,9.54-.71l-1.43,1a69.61,69.61,0,0,0-9.57.72,65.58,65.58,0,0,0-9,1.95,59,59,0,0,0-8.22,3.07A54.78,54.78,0,0,0,31.19,20.31Z"/></clipPath><clipPath id="clip-path-4" transform="translate(-13.44 -8.54)"><path class="cls-1" d="M109,74.2l-1.28,1.22a39.92,39.92,0,0,0,4.82-5.48,35.36,35.36,0,0,0,3.58-6.08,31.5,31.5,0,0,0,2.19-6.57,30.39,30.39,0,0,0,.68-7,32,32,0,0,0-4.45-15.57,42.6,42.6,0,0,0-11.61-12.7,57.55,57.55,0,0,0-17-8.51A67.72,67.72,0,0,0,65.25,10.5l1.43-1a67.61,67.61,0,0,1,20.56,3A57,57,0,0,1,104.18,21a42.44,42.44,0,0,1,11.57,12.65,31.85,31.85,0,0,1,4.43,15.51,30.72,30.72,0,0,1-.67,6.94,31.92,31.92,0,0,1-2.19,6.55,35.14,35.14,0,0,1-3.57,6.06A40.9,40.9,0,0,1,109,74.2Z"/></clipPath></defs><g class="cls-2"><g class="cls-2"><g class="cls-3"><g class="cls-2"><path d="M31.65,21.19l1.54-1q-1.92,1.29-3.66,2.7c-1.15.94-2.25,1.93-3.28,3A39.1,39.1,0,0,0,23.38,29a36.16,36.16,0,0,0-2.45,3.41L19.35,33.5a36.29,36.29,0,0,1,2.45-3.42,39.49,39.49,0,0,1,2.89-3.21,42.57,42.57,0,0,1,3.29-3q1.74-1.42,3.67-2.71" transform="translate(-13.44 -8.54)"/><path d="M19.35,33.5l1.58-1.07-.6,1c-.19.33-.38.66-.56,1s-.36.67-.53,1-.33.68-.49,1l-1.58,1.08c.15-.34.32-.69.49-1s.34-.68.52-1,.37-.67.57-1,.39-.66.6-1" transform="translate(-13.44 -8.54)"/><path d="M17.17,37.54l1.58-1.08c-.12.26-.23.53-.35.8s-.22.53-.32.8-.21.54-.31.82-.19.54-.28.82L15.9,40.79c.09-.27.18-.55.28-.82s.2-.55.31-.82.21-.54.32-.81.23-.53.36-.8" transform="translate(-13.44 -8.54)"/><path d="M15.9,40.79l1.59-1.09c-.08.23-.15.47-.22.71s-.14.47-.2.71-.13.48-.19.72-.12.48-.17.72l-1.6,1.11c.06-.24.11-.49.17-.73s.12-.48.19-.72.13-.48.21-.72.14-.47.22-.71" transform="translate(-13.44 -8.54)"/><path d="M15.11,43.67l1.6-1.11c-.05.23-.1.45-.14.68s-.09.45-.13.67-.07.45-.1.68-.07.46-.1.68l-1.6,1.12c0-.23.06-.46.1-.69s.07-.45.11-.68l.12-.68c0-.22.09-.45.14-.67" transform="translate(-13.44 -8.54)"/><path d="M14.64,46.39l1.6-1.12c0,.23,0,.45-.07.67s-.05.45-.06.67,0,.45-.05.67L16,48l-1.6,1.12,0-.68c0-.22,0-.45,0-.67l.06-.67c0-.23,0-.45.07-.67" transform="translate(-13.44 -8.54)"/><path d="M14.43,49.08,16,48c0,.13,0,.26,0,.4v1.2a2.81,2.81,0,0,1,0,.29c0,.09,0,.19,0,.29s0,.19,0,.28,0,.2,0,.29l-1.6,1.13c0-.09,0-.19,0-.28s0-.2,0-.29a2.81,2.81,0,0,0,0-.29v-.29c0-.14,0-.27,0-.4v-.81c0-.13,0-.26,0-.4" transform="translate(-13.44 -8.54)"/><path d="M14.47,51.84l1.6-1.13c0,.24,0,.49.05.73s.05.48.07.72l.09.72c0,.24.07.48.11.71l-1.6,1.15c0-.24-.07-.48-.1-.72s-.07-.48-.09-.72,0-.48-.07-.73l-.06-.73" transform="translate(-13.44 -8.54)"/><path d="M14.79,54.74l1.6-1.15c0,.27.09.54.14.81s.1.54.16.81.12.53.19.8.13.53.2.79L15.49,58l-.21-.79-.18-.8c-.06-.27-.12-.54-.17-.81s-.09-.54-.14-.81" transform="translate(-13.44 -8.54)"/><path d="M15.49,58l1.59-1.15c.1.34.19.68.3,1s.21.67.33,1l.36,1c.13.32.26.65.4,1L16.88,62c-.13-.32-.27-.65-.4-1s-.25-.66-.36-1-.23-.66-.33-1-.21-.68-.3-1" transform="translate(-13.44 -8.54)"/><path d="M16.88,62l1.59-1.16a34.21,34.21,0,0,0,2.67,5,38.06,38.06,0,0,0,3.53,4.66A42.16,42.16,0,0,0,29,74.72a49.06,49.06,0,0,0,5,3.77l-1.53,1.23a48.33,48.33,0,0,1-5-3.78,42.55,42.55,0,0,1-4.33-4.26A37.35,37.35,0,0,1,19.56,67a34,34,0,0,1-2.68-5" transform="translate(-13.44 -8.54)"/><path d="M32.47,79.72,34,78.49l1.52,1c.51.32,1,.62,1.56.92l1.61.87,1.66.82-1.51,1.24c-.56-.27-1.12-.54-1.66-.82s-1.09-.58-1.62-.88S34.51,81,34,80.68l-1.52-1" transform="translate(-13.44 -8.54)"/><path d="M38.84,83.29l1.51-1.24q.7.35,1.44.66c.48.22,1,.43,1.47.63s1,.41,1.5.6,1,.38,1.53.56l-1.5,1.25-1.53-.56c-.5-.2-1-.39-1.5-.6s-1-.41-1.48-.63-1-.44-1.44-.67" transform="translate(-13.44 -8.54)"/><path d="M44.79,85.75l1.5-1.25,1.44.48c.48.16,1,.31,1.46.45s1,.29,1.48.42,1,.27,1.51.39L50.71,87.5l-1.51-.39-1.49-.42-1.47-.46c-.49-.15-1-.32-1.45-.48" transform="translate(-13.44 -8.54)"/><path d="M50.71,87.5l1.47-1.26,1.46.34,1.48.31,1.5.27c.5.09,1,.17,1.51.24l-1.45,1.26c-.51-.07-1-.15-1.52-.24s-1-.18-1.5-.27l-1.49-.31-1.46-.34" transform="translate(-13.44 -8.54)"/><path d="M56.68,88.66l1.45-1.26c.51.08,1,.15,1.52.21l1.53.17,1.55.14,1.55.11-1.43,1.26-1.56-.1-1.55-.14c-.51-.06-1-.11-1.54-.18s-1-.13-1.52-.21" transform="translate(-13.44 -8.54)"/><path d="M62.85,89.29,64.28,88l1,0,1,0,1,0h1L66.82,89.4h-1l-1,0-1,0-1,0" transform="translate(-13.44 -8.54)"/></g></g></g><g class="cls-2"><g class="cls-4"><g class="cls-2"><path d="M66.82,89.4l1.42-1.27h1.25l.62,0,.63,0-1.41,1.27-.63,0-.62,0H66.82" transform="translate(-13.44 -8.54)"/><path d="M69.33,89.35l1.41-1.27L72.42,88c.56,0,1.11-.08,1.67-.12l1.65-.17,1.63-.2L76,88.77,74.35,89l-1.66.16L71,89.27l-1.69.08" transform="translate(-13.44 -8.54)"/><path d="M76,88.77l1.38-1.26c.6-.08,1.19-.17,1.78-.27l1.76-.31,1.73-.36,1.71-.41L83,87.42l-1.72.41-1.73.36c-.59.11-1.18.22-1.77.31s-1.18.19-1.78.27" transform="translate(-13.44 -8.54)"/><path d="M83,87.42l1.36-1.26c.68-.17,1.36-.35,2-.54s1.33-.4,2-.61,1.31-.43,2-.67,1.27-.47,1.9-.72l-1.34,1.25L89,85.6l-2,.67c-.65.21-1.32.41-2,.61s-1.35.37-2,.54" transform="translate(-13.44 -8.54)"/><path d="M90.87,84.87l1.34-1.25q2.33-.95,4.51-2.05t4.19-2.37q2-1.28,3.84-2.68t3.46-3l-1.28,1.22a43.35,43.35,0,0,1-3.47,3,46.48,46.48,0,0,1-3.86,2.69c-1.34.85-2.75,1.65-4.2,2.39s-3,1.42-4.53,2.05" transform="translate(-13.44 -8.54)"/></g></g></g><g class="cls-2"><g class="cls-5"><g class="cls-2"><path d="M31.19,20.31l1.54-1c.74-.49,1.49-1,2.26-1.42s1.56-.89,2.37-1.32,1.62-.83,2.46-1.22,1.69-.76,2.56-1.12l-1.51,1c-.87.36-1.73.73-2.57,1.12s-1.66.8-2.47,1.23-1.6.87-2.37,1.33-1.53.93-2.27,1.42" transform="translate(-13.44 -8.54)"/><path d="M40.87,15.21l1.51-1c.63-.25,1.27-.5,1.92-.74s1.31-.47,2-.69,1.33-.42,2-.62,1.36-.39,2-.57l-1.48,1c-.69.18-1.38.37-2.06.57s-1.35.41-2,.63l-2,.68c-.65.24-1.29.49-1.93.75" transform="translate(-13.44 -8.54)"/><path d="M48.85,12.58l1.48-1,1.73-.41c.58-.14,1.17-.26,1.76-.38l1.78-.32c.6-.11,1.2-.2,1.81-.29l-1.46,1-1.81.28c-.6.1-1.2.21-1.79.33l-1.76.37-1.74.42" transform="translate(-13.44 -8.54)"/><path d="M56,11.18l1.46-1L59.07,10l1.67-.17,1.7-.14c.56,0,1.13-.07,1.7-.09l-1.43,1-1.72.1c-.56,0-1.13.08-1.69.13s-1.13.11-1.69.18-1.11.13-1.66.21" transform="translate(-13.44 -8.54)"/><path d="M62.71,10.56l1.43-1,.64,0,.63,0h1.27l-1.43,1H64l-.64,0-.63,0" transform="translate(-13.44 -8.54)"/></g></g></g><g class="cls-2"><g class="cls-6"><g class="cls-2"><path d="M65.25,10.5l1.43-1h1l1,0,1,0,1,0-1.42,1-1,0-1,0h-2" transform="translate(-13.44 -8.54)"/><path d="M69.28,10.6l1.42-1,1.58.1,1.57.14,1.56.17,1.55.2-1.39,1L74,11c-.52-.07-1-.12-1.57-.18l-1.57-.13c-.53,0-1.06-.08-1.6-.1" transform="translate(-13.44 -8.54)"/><path d="M75.57,11.21l1.39-1,1.54.25q.77.12,1.53.27l1.51.31,1.49.34-1.37,1L80.16,12l-1.51-.31-1.54-.28-1.54-.24" transform="translate(-13.44 -8.54)"/><path d="M81.66,12.38l1.37-1c.51.12,1,.25,1.54.39l1.51.42,1.5.46,1.47.49-1.35,1c-.49-.17-1-.34-1.48-.49s-1-.32-1.5-.46l-1.52-.43c-.51-.14-1-.27-1.54-.39" transform="translate(-13.44 -8.54)"/><path d="M87.7,14.15l1.35-1c.52.18,1,.37,1.56.57s1,.39,1.54.6l1.5.64c.5.22,1,.44,1.48.68l-1.33,1L92.32,16l-1.51-.64c-.51-.21-1-.41-1.54-.6s-1-.39-1.57-.57" transform="translate(-13.44 -8.54)"/><path d="M93.8,16.64l1.33-1c.57.27,1.14.55,1.7.84s1.11.58,1.65.88,1.08.62,1.61.94,1,.64,1.55,1l-1.3,1c-.52-.33-1-.66-1.57-1s-1.06-.63-1.61-.93-1.1-.61-1.66-.89-1.13-.58-1.7-.85" transform="translate(-13.44 -8.54)"/><path d="M100.34,20.29l1.3-1a50.06,50.06,0,0,1,5.19,3.88,43,43,0,0,1,4.46,4.38,40.35,40.35,0,0,1,3.64,4.82,35.6,35.6,0,0,1,2.75,5.21l-1.25,1.09a34.35,34.35,0,0,0-2.76-5.22A38.84,38.84,0,0,0,110,28.58a46.51,46.51,0,0,0-4.47-4.4,51.51,51.51,0,0,0-5.21-3.89" transform="translate(-13.44 -8.54)"/><path d="M116.43,38.64l1.25-1.09c.14.34.28.68.41,1s.26.68.38,1,.23.69.34,1,.21.7.3,1l-1.24,1.11c-.1-.35-.2-.71-.31-1s-.22-.7-.34-1.05-.25-.68-.38-1-.27-.68-.41-1" transform="translate(-13.44 -8.54)"/><path d="M117.87,42.79l1.24-1.11c.07.27.15.55.21.82s.13.56.19.83.12.56.17.84.1.56.14.84l-1.24,1.12c0-.28-.09-.57-.15-.85s-.1-.56-.16-.83-.12-.56-.19-.84l-.21-.82" transform="translate(-13.44 -8.54)"/><path d="M118.58,46.13,119.82,45c0,.24.07.49.11.74l.09.75c0,.24,0,.49.07.74s0,.51,0,.76l-1.24,1.13c0-.25,0-.51-.05-.76s0-.5-.08-.75,0-.5-.08-.75-.07-.5-.11-.74" transform="translate(-13.44 -8.54)"/><path d="M118.9,49.13,120.14,48c0,.1,0,.2,0,.3s0,.19,0,.29,0,.2,0,.3v.3c0,.14,0,.28,0,.42V50c0,.14,0,.28,0,.42s0,.27,0,.41L118.93,52c0-.14,0-.27,0-.41s0-.28,0-.42v-.42c0-.13,0-.27,0-.41V50c0-.1,0-.2,0-.3s0-.2,0-.3,0-.2,0-.3" transform="translate(-13.44 -8.54)"/><path d="M118.93,52l1.24-1.14c0,.24,0,.47,0,.7s0,.47,0,.7l-.06.69c0,.23,0,.46-.08.69l-1.24,1.15c0-.23,0-.46.08-.69l.06-.7c0-.23,0-.46,0-.69s0-.47,0-.71" transform="translate(-13.44 -8.54)"/><path d="M118.7,54.78l1.24-1.15c0,.24-.07.48-.1.71l-.12.71c0,.23-.09.46-.13.7l-.15.69L118.2,57.6c0-.23.1-.46.14-.7s.1-.46.14-.7.08-.47.11-.71.07-.47.11-.71" transform="translate(-13.44 -8.54)"/><path d="M118.2,57.6l1.24-1.16-.18.75c-.06.25-.13.5-.2.75s-.14.49-.22.74-.15.49-.23.73l-1.25,1.17c.09-.25.16-.49.24-.74s.15-.49.22-.74.13-.5.2-.75l.18-.75" transform="translate(-13.44 -8.54)"/><path d="M117.36,60.58l1.25-1.17c-.09.28-.19.57-.3.85s-.21.56-.32.84-.22.56-.34.83-.24.55-.37.83L116,63.94c.13-.28.25-.55.37-.83s.24-.56.35-.84l.32-.84c.1-.28.2-.57.29-.85" transform="translate(-13.44 -8.54)"/><path d="M116,63.94l1.25-1.18q-.24.52-.51,1.05c-.17.35-.36.7-.55,1s-.38.68-.58,1-.41.68-.63,1l-1.26,1.19c.22-.33.43-.67.63-1l.59-1c.19-.35.37-.7.55-1s.35-.71.51-1.06" transform="translate(-13.44 -8.54)"/><path d="M113.75,68.09,115,66.9q-.63,1-1.32,1.92c-.46.64-1,1.26-1.45,1.87s-1,1.2-1.58,1.79-1.12,1.16-1.71,1.72l-1.28,1.22c.59-.56,1.16-1.14,1.71-1.73s1.08-1.18,1.59-1.8,1-1.23,1.46-1.86.91-1.28,1.32-1.94" transform="translate(-13.44 -8.54)"/></g></g></g><path d="M65.25,10.5a67.72,67.72,0,0,1,20.63,3.05,57.55,57.55,0,0,1,17,8.51,42.6,42.6,0,0,1,11.61,12.7,32,32,0,0,1,4.45,15.57,31.22,31.22,0,0,1-3.89,15.57,40.58,40.58,0,0,1-11.13,12.73,55.06,55.06,0,0,1-16.64,8.59,66.76,66.76,0,0,1-20.44,3.17,67.88,67.88,0,0,1-20.52-3.1,57.46,57.46,0,0,1-16.88-8.51A42.56,42.56,0,0,1,17.91,66.16a32,32,0,0,1-4.47-15.47,31.28,31.28,0,0,1,3.79-15.51,40.44,40.44,0,0,1,11-12.75A55,55,0,0,1,44.8,13.77,66.68,66.68,0,0,1,65.25,10.5Zm1.57,78.9a65.86,65.86,0,0,0,20.06-3.09,54.18,54.18,0,0,0,16.33-8.38,39.76,39.76,0,0,0,10.92-12.41A30.43,30.43,0,0,0,118,50.33a31.12,31.12,0,0,0-4.37-15.18,41.64,41.64,0,0,0-11.39-12.38,56.26,56.26,0,0,0-16.68-8.3,66.75,66.75,0,0,0-20.24-3A65.88,65.88,0,0,0,45.2,14.68,54.19,54.19,0,0,0,29,23.13a39.5,39.5,0,0,0-10.8,12.43,30.25,30.25,0,0,0-3.72,15.13,31,31,0,0,0,4.38,15.08A41.51,41.51,0,0,0,30.12,78.08a56,56,0,0,0,16.56,8.29,66.72,66.72,0,0,0,20.14,3" transform="translate(-13.44 -8.54)"/></g><text class="cls-7" transform="translate(24.05 65.44)">sl</text><text class="cls-8" transform="translate(115.88 38.82)">S<tspan class="cls-9" x="17.11" y="0">u</tspan><tspan class="cls-10" x="30.64" y="0">cc</tspan><tspan class="cls-9" x="55.28" y="0">e</tspan><tspan class="cls-10" x="67.93" y="0">s</tspan><tspan class="cls-9" x="79.11" y="0">s</tspan><tspan x="90.06" y="0">L</tspan><tspan class="cls-9" x="105.81" y="0">i</tspan><tspan class="cls-11" x="110.56" y="0">n</tspan><tspan class="cls-9" x="124.33" y="0">k</tspan><tspan class="cls-9"><tspan class="cls-12" x="0" y="30">C</tspan><tspan x="17.02" y="30">o</tspan><tspan class="cls-13" x="30.4" y="30">n</tspan><tspan class="cls-14" x="44" y="30">s</tspan><tspan x="54.8" y="30">u</tspan><tspan class="cls-15" x="68.32" y="30">l</tspan><tspan class="cls-16" x="73.17" y="30">t</tspan><tspan x="79.57" y="30">ing</tspan></tspan></text></svg>