<?xml version="1.0" encoding="utf-8"?>
<!-- Generator: Adobe Illustrator 24.3.0, SVG Export Plug-In . SVG Version: 6.00 Build 0)  -->
<svg version="1.1" id="Layer_1" xmlns="http://www.w3.org/2000/svg" xmlns:xlink="http://www.w3.org/1999/xlink" x="0px" y="0px"
	 viewBox="0 0 1200 600" style="enable-background:new 0 0 1200 600;" xml:space="preserve">
<style type="text/css">
	.st0{fill:none;}
	.st1{stroke:#000000;stroke-width:3;stroke-miterlimit:10;}
	.st2{font-family:'CourierNewPSMT';}
	.st3{font-size:160px;}
	.st4{letter-spacing:28;}
	.st5{fill:#006837;stroke:#006837;stroke-width:2;stroke-miterlimit:10;}
	.st6{font-family:'IBMPlexSans-ExtraLight';}
	.st7{font-size:73px;}
	.st8{letter-spacing:5.9;}
	.st9{fill:none;stroke:#000000;stroke-width:2;stroke-miterlimit:10;}
	.st10{enable-background:new    ;}
	.st11{fill:#00361C;}
	.st12{fill:#004F2A;}
	.st13{fill:#00582F;}
</style>
<rect x="187.8" y="275.7" class="st0" width="890.1" height="284.1"/>
<text transform="matrix(1 0 0 1 187.7707 373.7811)" class="st1 st2 st3 st4">GENESIS</text>
<text transform="matrix(1.1853 0 0 1 355.6408 465.7137)" class="st5 st6 st7 st8">CONSULTING</text>
<path class="st9" d="M60.8,288.8c0-117.7,367.2-213,821-213"/>
<path class="st9" d="M60.3,289.3c-2-95,367.7-176,822-176"/>
<path class="st9" d="M60.3,289.3c0-77.4,367.2-140,821-140"/>
<path class="st9" d="M60.3,289.3c0-59.1,367.7-107,822-107"/>
<g>
	<g>
		<g class="st10">
			<g>
				<polygon points="942.1,129.9 957.3,123.6 1006.7,178.1 991.5,184.4 				"/>
			</g>
			<g>
				<polygon points="991,80.4 1006.2,74.2 957.3,123.6 942.1,129.9 				"/>
			</g>
			<g>
				<polygon class="st11" points="1040.4,134.9 1055.6,128.7 1006.7,178.1 991.5,184.4 				"/>
			</g>
			<g>
				<polygon class="st12" points="991,80.4 1040.4,134.9 991.5,184.4 942.1,129.9 				"/>
			</g>
			<g>
				<polygon class="st13" points="991,80.4 1006.2,74.2 1055.6,128.7 1040.4,134.9 				"/>
			</g>
			<g>
				<polygon points="1041.7,135 1056.9,128.7 1006.7,179.5 991.5,185.8 				"/>
			</g>
			<g>
				<polygon points="991,79 1006.2,72.8 1056.9,128.7 1041.7,135 				"/>
			</g>
			<g>
				<path d="M991,79l50.7,56l-50.2,50.8l-50.7-56L991,79z M991.5,184.4l48.9-49.4L991,80.4l-48.9,49.4L991.5,184.4"/>
			</g>
		</g>
	</g>
</g>
</svg>
