<?xml version="1.0" encoding="utf-8"?>
<!-- Generator: Adobe Illustrator 24.3.0, SVG Export Plug-In . SVG Version: 6.00 Build 0)  -->
<svg version="1.1" id="Layer_1" xmlns="http://www.w3.org/2000/svg" xmlns:xlink="http://www.w3.org/1999/xlink" x="0px" y="0px"
	 viewBox="0 0 1275 253" style="enable-background:new 0 0 1275 253;" xml:space="preserve">
<style type="text/css">
	.st0{fill:#006635;}
</style>
<g transform="translate(0.000000,253.000000) scale(0.100000,-0.100000)">
	<path class="st0" d="M414,2172c-201-72-303-242-304-507c0-195,36-303,133-399c90-88,193-126,347-126c107,0,185,17,278,60l62,29v150
		v150l27,3c34,4,54,48,33,72c-10,14-44,16-219,16c-217,0-231-3-231-45c0-40,17-45,157-45h134l-3-121l-3-121l-48-19
		c-220-87-465-5-539,179c-20,51-22,74-23,212c0,146,1,158,26,210c80,169,216,247,384,220c113-18,205-78,205-134c0-12,5-27,12-34
		c19-19,66-15,78,7c15,29,13,203-3,225c-18,24-69,18-81-10c-10-21-10-21-75,9c-59,28-77,31-181,34C488,2190,455,2187,414,2172z"/>
	<path class="st0" d="M5733,2176c-129-42-203-138-203-266c0-160,80-222,350-277c69-14,143-35,165-46c108-60,122-191,28-282
		c-72-70-233-91-340-45c-60,25-129,95-138,137c-14,67-20,78-48,81c-52,6-57-8-57-152c0-89,4-136,12-144c21-21,66-14,79,11
		c6,12,13,24,15,26c1,2,16-6,32-17c64-46,111-57,242-57c114,0,130,2,180,26c124,58,182,146,182,273c0,120-45,192-151,239
		c-24,11-107,32-184,48s-159,38-183,49c-109,53-117,197-15,270c69,48,195,59,281,23c64-26,120-94,120-146c0-12,5-28,12-35
		c19-19,66-15,78,7c15,29,13,233-3,255c-17,24-69,18-81-9c-8-20-10-20-69,10c-53,26-72,30-161,32C5811,2189,5760,2185,5733,2176z"/>
	<path class="st0" d="M8393,2176c-129-42-203-138-203-266c0-160,80-222,350-277c69-14,143-35,165-46c108-60,122-191,28-282
		c-72-70-233-91-340-45c-60,25-129,95-138,137c-14,67-20,78-48,81c-52,6-57-8-57-152c0-89,4-136,12-144c21-21,66-14,79,11
		c6,12,13,24,15,26c1,2,16-6,32-17c64-46,111-57,242-57c114,0,130,2,180,26c124,58,182,146,182,273c0,120-45,192-151,239
		c-24,11-107,32-184,48s-159,38-183,49c-109,53-117,197-15,270c69,48,195,59,281,23c64-26,120-94,120-146c0-12,5-28,12-35
		c19-19,66-15,78,7c15,29,13,233-3,255c-17,24-69,18-81-9c-8-20-10-20-69,10c-53,26-72,30-161,32C8471,2189,8420,2185,8393,2176z"/>
	<path class="st0" d="M1422,2158c-7-7-12-21-12-33c0-34,20-45,82-45h58v-410v-410h-58c-62,0-82-11-82-45c0-45,2-45,437-45h413v151
		c0,84-5,159-10,170c-12,22-59,26-78,7c-8-8-12-50-12-125v-113h-255h-255v190v190h110h110v-46c0-60,14-84,48-84c48,0,52,12,52,175
		s-4,175-52,175c-34,0-48-24-48-84v-46h-110h-110v175v175h235h235v-86c0-99,10-124,48-124c48,0,52,13,52,162v138h-393
		C1535,2170,1431,2167,1422,2158z"/>
	<path class="st0" d="M2711,2148c-17-47,0-63,73-66l66-3v-409v-410h-43c-47,0-67-13-67-45c0-41,16-45,190-45s190,4,190,45
		c0,36-20,45-102,45h-78v367c0,201,3,364,6,360c4-3,115-188,248-409l242-403l57-3l57-3v456v455h45c53,0,75,26,56,66l-11,24l-177-2
		l-178-3v-40v-40l83-3l82-3v-361c0-203-4-358-9-353c-4,6-115,189-246,408l-238,397h-119C2724,2170,2719,2169,2711,2148z"/>
	<path class="st0" d="M4082,2158c-7-7-12-21-12-33c0-34,20-45,82-45h58v-410v-410h-58c-62,0-82-11-82-45c0-45,2-45,437-45h413v151
		c0,84-5,159-10,170c-12,22-59,26-78,7c-8-8-12-50-12-125v-113h-255h-255v190v190h110h110v-46c0-60,14-84,48-84c48,0,52,12,52,175
		s-4,175-52,175c-34,0-48-24-48-84v-46h-110h-110v175v175h235h235v-86c0-99,10-124,48-124c48,0,52,13,52,162v138h-393
		C4195,2170,4091,2167,4082,2158z"/>
	<path class="st0" d="M6867,2163c-14-13-7-71,9-77c9-3,72-6,140-6h124v-410v-409l-137-3l-138-3l-3-28c-7-57-8-57,332-57
		c328,0,336,1,336,45c0,40-17,45-157,45h-133v410v410h133c140,0,157,5,157,45c0,44-8,45-340,45C7016,2170,6870,2167,6867,2163z"/>
</g>
</svg>
