<?xml version="1.0" standalone="no"?>
<!DOCTYPE svg PUBLIC "-//W3C//DTD SVG 20010904//EN"
 "http://www.w3.org/TR/2001/REC-SVG-20010904/DTD/svg10.dtd">
<svg version="1.0" xmlns="http://www.w3.org/2000/svg"
 width="1275.000000pt" height="253.000000pt" viewBox="0 0 1275.000000 253.000000"
 preserveAspectRatio="xMidYMid meet">
<metadata>
Created by potrace 1.16, written by Peter Selinger 2001-2019
</metadata>
<g transform="translate(0.000000,253.000000) scale(0.100000,-0.100000)"
fill="#000000" stroke="none">
<path d="M414 2172 c-201 -72 -303 -242 -304 -507 0 -195 36 -303 133 -399 90
-88 193 -126 347 -126 107 0 185 17 278 60 l62 29 0 150 0 150 27 3 c34 4 54
48 33 72 -10 14 -44 16 -219 16 -217 0 -231 -3 -231 -45 0 -40 17 -45 157 -45
l134 0 -3 -121 -3 -121 -48 -19 c-220 -87 -465 -5 -539 179 -20 51 -22 74 -23
212 0 146 1 158 26 210 80 169 216 247 384 220 113 -18 205 -78 205 -134 0
-12 5 -27 12 -34 19 -19 66 -15 78 7 15 29 13 203 -3 225 -18 24 -69 18 -81
-10 -10 -21 -10 -21 -75 9 -59 28 -77 31 -181 34 -92 3 -125 0 -166 -15z"/>
<path d="M5733 2176 c-129 -42 -203 -138 -203 -266 0 -160 80 -222 350 -277
69 -14 143 -35 165 -46 108 -60 122 -191 28 -282 -72 -70 -233 -91 -340 -45
-60 25 -129 95 -138 137 -14 67 -20 78 -48 81 -52 6 -57 -8 -57 -152 0 -89 4
-136 12 -144 21 -21 66 -14 79 11 6 12 13 24 15 26 1 2 16 -6 32 -17 64 -46
111 -57 242 -57 114 0 130 2 180 26 124 58 182 146 182 273 0 120 -45 192
-151 239 -24 11 -107 32 -184 48 -77 16 -159 38 -183 49 -109 53 -117 197 -15
270 69 48 195 59 281 23 64 -26 120 -94 120 -146 0 -12 5 -28 12 -35 19 -19
66 -15 78 7 15 29 13 233 -3 255 -17 24 -69 18 -81 -9 -8 -20 -10 -20 -69 10
-53 26 -72 30 -161 32 -65 2 -116 -2 -143 -11z"/>
<path d="M8393 2176 c-129 -42 -203 -138 -203 -266 0 -160 80 -222 350 -277
69 -14 143 -35 165 -46 108 -60 122 -191 28 -282 -72 -70 -233 -91 -340 -45
-60 25 -129 95 -138 137 -14 67 -20 78 -48 81 -52 6 -57 -8 -57 -152 0 -89 4
-136 12 -144 21 -21 66 -14 79 11 6 12 13 24 15 26 1 2 16 -6 32 -17 64 -46
111 -57 242 -57 114 0 130 2 180 26 124 58 182 146 182 273 0 120 -45 192
-151 239 -24 11 -107 32 -184 48 -77 16 -159 38 -183 49 -109 53 -117 197 -15
270 69 48 195 59 281 23 64 -26 120 -94 120 -146 0 -12 5 -28 12 -35 19 -19
66 -15 78 7 15 29 13 233 -3 255 -17 24 -69 18 -81 -9 -8 -20 -10 -20 -69 10
-53 26 -72 30 -161 32 -65 2 -116 -2 -143 -11z"/>
<path d="M1422 2158 c-7 -7 -12 -21 -12 -33 0 -34 20 -45 82 -45 l58 0 0 -410
0 -410 -58 0 c-62 0 -82 -11 -82 -45 0 -45 2 -45 437 -45 l413 0 0 151 c0 84
-5 159 -10 170 -12 22 -59 26 -78 7 -8 -8 -12 -50 -12 -125 l0 -113 -255 0
-255 0 0 190 0 190 110 0 110 0 0 -46 c0 -60 14 -84 48 -84 48 0 52 12 52 175
0 163 -4 175 -52 175 -34 0 -48 -24 -48 -84 l0 -46 -110 0 -110 0 0 175 0 175
235 0 235 0 0 -86 c0 -99 10 -124 48 -124 48 0 52 13 52 162 l0 138 -393 0
c-292 0 -396 -3 -405 -12z"/>
<path d="M2711 2148 c-17 -47 0 -63 73 -66 l66 -3 0 -409 0 -410 -43 0 c-47 0
-67 -13 -67 -45 0 -41 16 -45 190 -45 174 0 190 4 190 45 0 36 -20 45 -102 45
l-78 0 0 367 c0 201 3 364 6 360 4 -3 115 -188 248 -409 l242 -403 57 -3 57
-3 0 456 0 455 45 0 c53 0 75 26 56 66 l-11 24 -177 -2 -178 -3 0 -40 0 -40
83 -3 82 -3 0 -361 c0 -203 -4 -358 -9 -353 -4 6 -115 189 -246 408 l-238 397
-119 0 c-114 0 -119 -1 -127 -22z"/>
<path d="M4082 2158 c-7 -7 -12 -21 -12 -33 0 -34 20 -45 82 -45 l58 0 0 -410
0 -410 -58 0 c-62 0 -82 -11 -82 -45 0 -45 2 -45 437 -45 l413 0 0 151 c0 84
-5 159 -10 170 -12 22 -59 26 -78 7 -8 -8 -12 -50 -12 -125 l0 -113 -255 0
-255 0 0 190 0 190 110 0 110 0 0 -46 c0 -60 14 -84 48 -84 48 0 52 12 52 175
0 163 -4 175 -52 175 -34 0 -48 -24 -48 -84 l0 -46 -110 0 -110 0 0 175 0 175
235 0 235 0 0 -86 c0 -99 10 -124 48 -124 48 0 52 13 52 162 l0 138 -393 0
c-292 0 -396 -3 -405 -12z"/>
<path d="M6867 2163 c-14 -13 -7 -71 9 -77 9 -3 72 -6 140 -6 l124 0 0 -410 0
-409 -137 -3 -138 -3 -3 -28 c-7 -57 -8 -57 332 -57 328 0 336 1 336 45 0 40
-17 45 -157 45 l-133 0 0 410 0 410 133 0 c140 0 157 5 157 45 0 44 -8 45
-340 45 -174 0 -320 -3 -323 -7z"/>
</g>
</svg>
